<svg width="90" height="90" xmlns="http://www.w3.org/2000/svg">
 <g>
  <title>Next</title>
  <ellipse fill="#5b5bd3" stroke="#000" cx="45" cy="45" id="svg_1" rx="30" ry="30"/>
  <path stroke="#000000" fill="#ffffff" d="m46.92639,57.66901c0.95723,-0.41577 1.74236,-0.80295 0.25541,-0.81428c-1.31319,0.20887 -4.7103,-1.32636 -1.98765,-2.08096c1.70332,-0.78704 5.57969,1.03084 5.60036,-2.07866c-0.30813,-1.94871 -5.30833,-0.42717 -3.66343,-3.04064c1.81156,-0.8766 5.40373,1.18878 6.01143,-1.52376c-0.55707,-2.63013 -4.04141,-0.95159 -5.79272,-1.67847c-1.69776,0.41442 -2.14486,-2.22757 -0.23943,-1.8288c4.40485,-0.28123 8.84041,0.13151 13.23009,-0.44241c0.70908,-0.46481 1.23323,-3.32403 0.3384,-3.51658c-6.3944,-0.1568 -12.80009,-0.01268 -19.18437,-0.48038c-2.29366,-0.02819 -0.54118,-2.9266 1.15371,-2.24592c1.61447,-0.62565 2.25429,-2.26615 3.43921,-3.88602c0.60551,-3.54072 -2.30464,-2.22656 -3.49312,-1.19047c-1.32711,1.02962 -3.6098,3.16683 -4.82075,4.28877c-1.06152,0.90836 -3.50716,1.91633 -4.99488,3.13398c-1.27164,0.53481 -2.66321,0.26855 -3.9122,0.36459c0,4.79728 0,9.59449 0,14.39177c3.5336,1.82084 7.25192,3.42027 11.16938,3.2373c2.29482,-0.01106 4.65557,0.09051 6.89055,-0.60906l0,0l0,0l0.00001,0zm-14.55858,1.53867c-1.80385,-0.82022 -3.60443,-1.65089 -5.39193,-2.51993c0.08554,-5.99078 0.17108,-11.98163 0.25662,-17.97241c1.42716,-0.06414 3.54483,0.77361 4.56207,-0.45995c2.73491,-1.03879 4.51057,-3.33637 6.90811,-5.06084c1.68723,-1.56895 3.03491,-2.10443 4.77758,-3.29429c1.32364,-0.72438 2.04033,-0.35447 3.53083,-0.03864c0.65007,1.25892 1.45709,1.90959 1.03832,4.30786c-0.87382,0.52017 -2.00781,4.01631 -0.29061,4.0441c4.7807,0.54216 9.63839,-0.21986 14.3815,0.72769c1.18107,1.89226 1.40631,6.1434 -0.75533,7.34338c-2.06865,0.70779 -4.24975,0.35669 -6.37508,0.44181c-0.00013,1.79015 0.24996,4.07465 -1.42904,4.97391c-1.23976,1.91357 -1.32694,4.72471 -3.32465,6.12492c-1.68013,2.03739 -4.07185,2.66676 -6.40474,2.59958c-3.82536,0.06137 -7.85189,0.49535 -11.48366,-1.21704l0,-0.00014l0,0l0,0l0.00001,-0.00001z" id="svg_2"/>
 </g>

</svg>