<svg width="90" height="90" xmlns="http://www.w3.org/2000/svg">
 <g>
  <title>Previous</title>
  <ellipse fill="#5b5bd3" stroke="#000" cx="45" cy="45" id="svg_1" rx="30" ry="30"/>
  <path fill="#ffffff" d="m43.09599,57.66902c-0.94611,-0.41577 -1.72212,-0.80295 -0.25244,-0.81428c1.29794,0.20887 4.65559,-1.32636 1.96457,-2.08096c-1.68354,-0.78704 -5.51489,1.03084 -5.53532,-2.07866c0.30455,-1.94871 5.24668,-0.42717 3.62088,-3.04064c-1.79052,-0.8766 -5.34097,1.18878 -5.94161,-1.52376c0.5506,-2.63013 3.99447,-0.95159 5.72544,-1.67847c1.67804,0.41442 2.11995,-2.22757 0.23665,-1.8288c-4.35369,-0.28123 -8.73774,0.13151 -13.07643,-0.44241c-0.70084,-0.46481 -1.21891,-3.32403 -0.33447,-3.51658c6.32013,-0.1568 12.65143,-0.01268 18.96156,-0.48038c2.26702,-0.02819 0.53489,-2.9266 -1.14031,-2.24592c-1.59572,-0.62565 -2.22811,-2.26615 -3.39927,-3.88602c-0.59848,-3.54072 2.27787,-2.22656 3.45255,-1.19047c1.3117,1.02962 3.56788,3.16683 4.76476,4.28877c1.04919,0.90836 3.46643,1.91633 4.93687,3.13398c1.25687,0.53481 2.63228,0.26855 3.86676,0.36459c0,4.79728 0,9.59449 0,14.39177c-3.49256,1.82084 -7.1677,3.42027 -11.03966,3.2373c-2.26817,-0.01106 -4.6015,0.09051 -6.81052,-0.60906l0,0l0,0l-0.00001,0zm14.3895,1.53867c1.7829,-0.82022 3.56257,-1.65089 5.32931,-2.51993c-0.08455,-5.99078 -0.16909,-11.98163 -0.25364,-17.97241c-1.41058,-0.06414 -3.50366,0.77361 -4.50909,-0.45995c-2.70315,-1.03879 -4.45818,-3.33637 -6.82788,-5.06084c-1.66763,-1.56895 -2.99966,-2.10443 -4.72209,-3.29429c-1.30827,-0.72438 -2.01663,-0.35447 -3.48982,-0.03864c-0.64252,1.25892 -1.44017,1.90959 -1.02626,4.30786c0.86367,0.52017 1.98449,4.01631 0.28723,4.0441c-4.72518,0.54216 -9.52645,-0.21986 -14.21447,0.72769c-1.16735,1.89226 -1.38998,6.1434 0.74656,7.34338c2.04462,0.70779 4.20039,0.35669 6.30104,0.44181c0.00013,1.79015 -0.24706,4.07465 1.41244,4.97391c1.22536,1.91357 1.31153,4.72471 3.28604,6.12492c1.66062,2.03739 4.02456,2.66676 6.33035,2.59958c3.78093,0.06137 7.7607,0.49535 11.35029,-1.21704l0,-0.00014l0,0l0,0l-0.00001,-0.00001z" id="svg_3" stroke="#000000"/>
 </g>

</svg>